<svg width="216" height="196" viewBox="0 0 216 196" fill="none" xmlns="http://www.w3.org/2000/svg">
<g id="undraw_pay_online_re_aqe6 2" clip-path="url(#clip0_804_6748)">
<path id="Vector" d="M109.466 48.7705H30.3681C25.2212 48.7705 21.0488 52.9462 21.0488 58.0971V136.25C21.0488 141.4 25.2212 145.576 30.3681 145.576H109.466C114.613 145.576 118.786 141.4 118.786 136.25V58.0971C118.786 52.9462 114.613 48.7705 109.466 48.7705Z" fill="#4E81B0"/>
<path id="Vector_2" d="M46.9798 50.6885C40.6112 50.6885 34.5034 53.2204 30.0001 57.7273C25.4967 62.2341 22.9668 68.3468 22.9668 74.7204V136.25C22.9668 137.222 23.1583 138.186 23.5303 139.085C23.9023 139.984 24.4476 140.8 25.135 141.488C25.8224 142.176 26.6385 142.722 27.5366 143.094C28.4348 143.466 29.3974 143.658 30.3696 143.658H80.852C90.4047 143.658 99.5661 139.86 106.321 133.1C113.076 126.34 116.87 117.172 116.87 107.611V58.0971C116.87 56.1322 116.09 54.2478 114.702 52.8584C113.314 51.469 111.431 50.6885 109.468 50.6885H46.9798Z" fill="#B9D3EB"/>
<path id="Vector_3" d="M204.787 16.819H7.30354C7.21112 16.819 7.12248 16.7823 7.05713 16.7169C6.99179 16.6516 6.95508 16.5629 6.95508 16.4705C6.95508 16.3781 6.99179 16.2895 7.05713 16.2241C7.12248 16.1588 7.21112 16.1221 7.30354 16.1221H204.787C204.879 16.1221 204.968 16.1588 205.033 16.2241C205.099 16.2895 205.136 16.3781 205.136 16.4705C205.136 16.5629 205.099 16.6516 205.033 16.7169C204.968 16.7823 204.879 16.819 204.787 16.819Z" fill="#F5F7F9"/>
<path id="Vector_4" d="M17.1851 6.35C18.8126 6.35 20.1319 5.00021 20.1319 3.33515C20.1319 1.6701 18.8126 0.320312 17.1851 0.320312C15.5576 0.320312 14.2383 1.6701 14.2383 3.33515C14.2383 5.00021 15.5576 6.35 17.1851 6.35Z" fill="#F5F7F9"/>
<path id="Vector_5" d="M27.3648 6.35C28.9922 6.35 30.3116 5.00021 30.3116 3.33515C30.3116 1.6701 28.9922 0.320312 27.3648 0.320312C25.7373 0.320312 24.418 1.6701 24.418 3.33515C24.418 5.00021 25.7373 6.35 27.3648 6.35Z" fill="#F5F7F9"/>
<path id="Vector_6" d="M37.5445 6.35C39.1719 6.35 40.4913 5.00021 40.4913 3.33515C40.4913 1.6701 39.1719 0.320312 37.5445 0.320312C35.917 0.320312 34.5977 1.6701 34.5977 3.33515C34.5977 5.00021 35.917 6.35 37.5445 6.35Z" fill="#F5F7F9"/>
<path id="Vector_7" d="M49.1513 5.71828C49.1049 5.71834 49.0589 5.70908 49.0161 5.69107C48.9734 5.67305 48.9346 5.64664 48.9022 5.61338L46.9139 3.57921C46.8501 3.51406 46.8145 3.42653 46.8145 3.33537C46.8145 3.24421 46.8501 3.15667 46.9139 3.09153L48.9022 1.05752C48.9341 1.02427 48.9722 0.99766 49.0144 0.979246C49.0566 0.960832 49.1021 0.950973 49.1481 0.95024C49.1942 0.949506 49.2399 0.957914 49.2827 0.974973C49.3254 0.992032 49.3644 1.01741 49.3973 1.04963C49.4303 1.08185 49.4565 1.12029 49.4744 1.16271C49.4924 1.20513 49.5018 1.2507 49.5021 1.29678C49.5024 1.34286 49.4936 1.38854 49.4761 1.43118C49.4586 1.47382 49.4329 1.51257 49.4004 1.5452L47.6504 3.33536L49.4004 5.1257C49.4483 5.17477 49.4808 5.23692 49.4936 5.30435C49.5064 5.37178 49.4991 5.4415 49.4725 5.50478C49.4459 5.56805 49.4012 5.62205 49.3441 5.66003C49.2869 5.69801 49.2199 5.71827 49.1513 5.71828Z" fill="#F5F7F9"/>
<path id="Vector_8" d="M52.4934 5.71828C52.4248 5.71827 52.3578 5.69801 52.3006 5.66003C52.2435 5.62205 52.1988 5.56804 52.1722 5.50477C52.1456 5.4415 52.1383 5.37178 52.1511 5.30434C52.1639 5.23691 52.1964 5.17477 52.2443 5.1257L53.9941 3.33536L52.2443 1.5452C52.2118 1.51257 52.1861 1.47382 52.1686 1.43118C52.1511 1.38854 52.1423 1.34285 52.1426 1.29677C52.1429 1.25069 52.1523 1.20512 52.1703 1.1627C52.1882 1.12028 52.2145 1.08185 52.2474 1.04963C52.2803 1.0174 52.3193 0.992027 52.362 0.974968C52.4048 0.957908 52.4505 0.949506 52.4966 0.95024C52.5426 0.950973 52.5881 0.960832 52.6303 0.979246C52.6725 0.99766 52.7106 1.02426 52.7425 1.05752L54.7307 3.09152C54.7944 3.15667 54.8301 3.2442 54.8301 3.33536C54.8301 3.42653 54.7944 3.51406 54.7307 3.57921L52.7425 5.61338C52.7101 5.64663 52.6714 5.67305 52.6286 5.69107C52.5858 5.70908 52.5398 5.71834 52.4934 5.71828Z" fill="#F5F7F9"/>
<path id="Vector_9" d="M187.177 0.669922H183.48C183.38 0.669892 183.28 0.689628 183.188 0.727999C183.095 0.766369 183.011 0.822624 182.94 0.893549C182.869 0.964474 182.813 1.04868 182.775 1.14135C182.736 1.23402 182.717 1.33335 182.717 1.43365V5.13722C182.717 5.23752 182.736 5.33685 182.775 5.42952C182.813 5.5222 182.869 5.60641 182.94 5.67733C183.011 5.74826 183.095 5.80451 183.188 5.84288C183.28 5.88125 183.38 5.90098 183.48 5.90095H187.177C187.38 5.90115 187.574 5.82086 187.718 5.67769C187.862 5.53452 187.943 5.34015 187.944 5.13722V1.43365C187.943 1.23072 187.862 1.03636 187.718 0.893187C187.574 0.750018 187.38 0.669727 187.177 0.669922Z" fill="#F5F7F9"/>
<path id="Vector_10" d="M178.117 0.669922H174.419C174.319 0.669892 174.22 0.689628 174.127 0.727999C174.035 0.766369 173.951 0.822624 173.88 0.893549C173.809 0.964474 173.753 1.04868 173.714 1.14135C173.676 1.23402 173.656 1.33335 173.656 1.43365V5.13722C173.656 5.23752 173.676 5.33685 173.714 5.42952C173.753 5.5222 173.809 5.60641 173.88 5.67733C173.951 5.74826 174.035 5.80451 174.127 5.84288C174.22 5.88125 174.319 5.90098 174.419 5.90095H178.117C178.319 5.90115 178.514 5.82086 178.658 5.67769C178.801 5.53452 178.882 5.34015 178.883 5.13722V1.43365C178.882 1.23072 178.801 1.03636 178.658 0.893187C178.514 0.750018 178.319 0.669727 178.117 0.669922Z" fill="#F5F7F9"/>
<path id="Vector_11" d="M195.714 0.84375H192.017C191.917 0.84372 191.818 0.863456 191.725 0.901827C191.632 0.940197 191.548 0.996452 191.477 1.06738C191.407 1.1383 191.35 1.2225 191.312 1.31518C191.274 1.40785 191.254 1.50718 191.254 1.60748V5.31105C191.254 5.41135 191.274 5.51068 191.312 5.60335C191.35 5.69603 191.407 5.78023 191.477 5.85116C191.548 5.92208 191.632 5.97834 191.725 6.01671C191.818 6.05508 191.917 6.07481 192.017 6.07478H195.714C195.917 6.07498 196.112 5.99468 196.255 5.85152C196.399 5.70835 196.48 5.51398 196.481 5.31105V1.60748C196.48 1.40455 196.399 1.21018 196.255 1.06702C196.112 0.923846 195.917 0.843555 195.714 0.84375Z" fill="#F5F7F9"/>
<path id="Vector_12" d="M121.571 6.27724H97.5268C96.695 6.27724 95.8973 5.94656 95.3092 5.35796C94.721 4.76935 94.3906 3.97103 94.3906 3.13862C94.3906 2.3062 94.721 1.50789 95.3092 0.919283C95.8973 0.330678 96.695 0 97.5268 0H121.571C122.402 0 123.2 0.330678 123.788 0.919283C124.376 1.50789 124.707 2.3062 124.707 3.13862C124.707 3.97103 124.376 4.76935 123.788 5.35796C123.2 5.94656 122.402 6.27724 121.571 6.27724Z" fill="#F5F7F9"/>
<path id="Vector_13" d="M81.9817 110.688H28.3213C28.0143 110.688 27.72 110.566 27.503 110.349C27.286 110.132 27.1641 109.837 27.1641 109.53C27.1641 109.223 27.286 108.928 27.503 108.711C27.72 108.494 28.0143 108.372 28.3213 108.372H81.9817C82.2886 108.372 82.583 108.494 82.8 108.711C83.017 108.928 83.1389 109.223 83.1389 109.53C83.1389 109.837 83.017 110.132 82.8 110.349C82.583 110.566 82.2886 110.688 81.9817 110.688Z" fill="#F5F7F9"/>
<path id="Vector_14" d="M81.9816 77.6551H1.15725C1.00511 77.6553 0.85442 77.6256 0.713792 77.5675C0.573163 77.5094 0.44536 77.4242 0.337692 77.3166C0.230024 77.209 0.144612 77.0813 0.0863319 76.9406C0.028052 76.8 -0.00195312 76.6492 -0.00195312 76.497C-0.00195312 76.3447 0.028052 76.194 0.0863319 76.0533C0.144612 75.9127 0.230024 75.7849 0.337692 75.6774C0.44536 75.5698 0.573163 75.4845 0.713792 75.4264C0.85442 75.3684 1.00511 75.3386 1.15725 75.3389H81.9816C82.2882 75.3394 82.582 75.4617 82.7986 75.6788C83.0152 75.8959 83.1368 76.1902 83.1368 76.497C83.1368 76.8038 83.0152 77.098 82.7986 77.3152C82.582 77.5323 82.2882 77.6545 81.9816 77.6551Z" fill="#F5F7F9"/>
<path id="Vector_15" d="M81.9838 85.9248H1.15607C0.849279 85.9253 0.555236 86.0477 0.338486 86.265C0.121737 86.4823 0 86.7768 0 87.0838C0 87.3908 0.121737 87.6853 0.338486 87.9026C0.555236 88.1199 0.849279 88.2423 1.15607 88.2428H81.9838C82.2906 88.2423 82.5847 88.1199 82.8014 87.9026C83.0182 87.6853 83.1399 87.3908 83.1399 87.0838C83.1399 86.7768 83.0182 86.4823 82.8014 86.265C82.5847 86.0477 82.2906 85.9253 81.9838 85.9248Z" fill="#F5F7F9"/>
<path id="Vector_16" d="M81.9816 98.8309H1.15719C0.850285 98.8309 0.555948 98.7088 0.338933 98.4917C0.121918 98.2745 0 97.9799 0 97.6728C0 97.3656 0.121918 97.071 0.338933 96.8538C0.555948 96.6367 0.850285 96.5146 1.15719 96.5146H81.9816C82.2885 96.5146 82.5828 96.6367 82.7998 96.8538C83.0168 97.071 83.1387 97.3656 83.1387 97.6728C83.1387 97.9799 83.0168 98.2745 82.7998 98.4917C82.5828 98.7088 82.2885 98.8309 81.9816 98.8309Z" fill="#F5F7F9"/>
<path id="Vector_17" d="M150.04 191.356L146.329 191.356L144.564 177.032L150.041 177.033L150.04 191.356Z" fill="#F2A48B"/>
<path id="Vector_18" d="M150.172 195.23L138.762 195.229V195.085C138.762 193.906 139.23 192.776 140.063 191.942C140.896 191.108 142.025 190.64 143.203 190.64L145.288 189.058L149.176 190.64L150.173 190.64L150.172 195.23Z" fill="#031225"/>
<path id="Vector_19" d="M187.376 191.356L183.666 191.356L181.9 177.032L187.377 177.033L187.376 191.356Z" fill="#F2A48B"/>
<path id="Vector_20" d="M187.506 195.23L176.096 195.229V195.085C176.096 193.906 176.564 192.776 177.397 191.942C178.23 191.108 179.359 190.64 180.537 190.64L182.622 189.058L186.51 190.64L187.507 190.64L187.506 195.23Z" fill="#031225"/>
<path id="Vector_21" d="M153.068 109.066C153.068 109.066 150.631 111.655 150.528 113.334C150.426 115.013 151.695 111.963 150.426 115.013C149.156 118.063 149.156 116.03 149.156 118.063C149.156 120.097 146.465 122.082 146.465 122.082L142.027 140.353L144.584 183.134H150.172C155.364 167.293 157.78 155.06 154.997 149.582L162.757 132.321C162.757 132.321 177.42 178.239 178.019 178.78C178.618 179.321 178.618 178.559 178.618 179.321C178.618 180.084 177.856 179.321 178.618 180.084L182.173 183.642L187.507 183.134C187.507 183.134 188.221 149.889 182.276 144.143C182.276 144.143 183.649 126.351 182.276 126.401C180.903 126.451 180.903 128.739 180.903 126.451C180.903 124.164 182.53 123.553 182.53 123.553L177.959 107.484L153.068 109.066Z" fill="#031225"/>
<path id="Vector_22" d="M181.86 73.6472L176.696 95.2862L177.915 103.335L179.379 112.978L174.319 112.65L166.489 112.141L151.952 111.199L150.68 68.4964L157.349 61.5217L158.541 58.1355L168.183 58.0762L170.49 62.1424L176.421 63.8303C177.183 64.3144 177.899 64.8678 178.56 65.4833C180.024 66.8399 181.32 68.5626 181.926 70.3272C182.109 70.8415 182.225 71.3771 182.271 71.921L181.86 73.6472Z" fill="#F5F7F9"/>
<path id="Vector_23" d="M136.978 128.552C137.367 128.337 137.704 128.04 137.967 127.682C138.23 127.324 138.411 126.913 138.5 126.478C138.588 126.042 138.581 125.593 138.478 125.16C138.376 124.728 138.181 124.323 137.907 123.974L145.262 110.573L142.059 107.626L133.439 123.606C132.886 124.111 132.537 124.802 132.458 125.548C132.38 126.294 132.577 127.042 133.014 127.652C133.45 128.262 134.094 128.69 134.825 128.856C135.556 129.022 136.322 128.914 136.978 128.552Z" fill="#F5F7F9"/>
<path id="Vector_24" d="M154.917 65.8857L153.203 96.6215L144.943 115.937L139.567 123.071L140.179 119.838L136.473 117.983L136.125 117.81L143.239 90.1805L143.894 79.4438C144.007 77.5962 144.502 75.7921 145.348 74.1457C146.193 72.4993 147.371 71.0464 148.806 69.8789L152.921 66.5339L154.917 65.8857Z" fill="#F5F7F9"/>
<path id="Vector_25" d="M136.978 128.552C137.367 128.337 137.704 128.04 137.967 127.682C138.23 127.324 138.411 126.913 138.5 126.478C138.588 126.042 138.581 125.593 138.478 125.16C138.376 124.728 138.181 124.323 137.907 123.974L145.262 110.573L142.059 107.626L133.439 123.606C132.886 124.111 132.537 124.802 132.458 125.548C132.38 126.294 132.577 127.042 133.014 127.652C133.45 128.262 134.094 128.69 134.825 128.856C135.556 129.022 136.322 128.914 136.978 128.552Z" fill="#F2A48B"/>
<path id="Vector_26" d="M154.917 65.8857L153.203 96.6215L144.943 115.937L139.567 123.071L140.179 119.838L136.473 117.983L136.125 117.81L143.239 90.1805L143.894 79.4438C144.007 77.5962 144.502 75.7921 145.348 74.1457C146.193 72.4993 147.371 71.0464 148.806 69.8789L152.921 66.5339L154.917 65.8857Z" fill="#F5F7F9"/>
<path id="Vector_27" d="M162.877 66.9453H83.7783C78.6314 66.9453 74.459 71.121 74.459 76.2719V117.11C74.459 122.261 78.6314 126.436 83.7783 126.436H162.877C168.023 126.436 172.196 122.261 172.196 117.11V76.2719C172.196 71.121 168.023 66.9453 162.877 66.9453Z" fill="#E8F1F9"/>
<path id="Vector_28" d="M162.877 126.785H83.7791C81.2159 126.782 78.7586 125.762 76.9462 123.948C75.1337 122.134 74.1142 119.675 74.1113 117.11V76.272C74.1142 73.7069 75.1337 71.2476 76.9462 69.4337C78.7586 67.6199 81.2159 66.5996 83.7791 66.5967H162.877C165.44 66.5996 167.898 67.6199 169.71 69.4338C171.523 71.2476 172.542 73.7069 172.545 76.272V117.11C172.542 119.675 171.523 122.134 169.71 123.948C167.898 125.762 165.44 126.782 162.877 126.785ZM83.7791 67.2942C81.3999 67.2942 79.1181 68.24 77.4357 69.9237C75.7534 71.6074 74.8082 73.891 74.8083 76.272V91.5361C74.8083 100.7 78.4456 109.488 84.9202 115.968C91.3948 122.447 100.176 126.088 109.333 126.088H162.877C165.257 126.088 167.538 125.142 169.221 123.458C170.903 121.775 171.848 119.491 171.848 117.11V76.2721C171.848 75.0931 171.616 73.9256 171.165 72.8364C170.714 71.7471 170.054 70.7574 169.221 69.9237C168.388 69.09 167.399 68.4287 166.31 67.9776C165.222 67.5264 164.055 67.2942 162.877 67.2942L83.7791 67.2942Z" fill="#1773C8"/>
<path id="Vector_29" d="M104.686 110.292H86.2177C85.5441 110.292 84.998 110.838 84.998 111.513C84.998 112.187 85.5441 112.733 86.2177 112.733H104.686C105.36 112.733 105.906 112.187 105.906 111.513C105.906 110.838 105.36 110.292 104.686 110.292Z" fill="#0F1D2F"/>
<path id="Vector_30" d="M160.439 106.979H147.546C146.872 106.979 146.326 107.525 146.326 108.199V114.825C146.326 115.499 146.872 116.046 147.546 116.046H160.439C161.112 116.046 161.658 115.499 161.658 114.825V108.199C161.658 107.525 161.112 106.979 160.439 106.979Z" fill="#0F1D2F"/>
<path id="Vector_31" d="M91.2703 89.8914C94.7344 89.8914 97.5426 87.081 97.5426 83.6141C97.5426 80.1473 94.7344 77.3369 91.2703 77.3369C87.8062 77.3369 84.998 80.1473 84.998 83.6141C84.998 87.081 87.8062 89.8914 91.2703 89.8914Z" fill="#0F1D2F"/>
<path id="Vector_32" d="M163.009 56.2796C167.358 56.2796 170.884 52.7507 170.884 48.3976C170.884 44.0445 167.358 40.5156 163.009 40.5156C158.659 40.5156 155.133 44.0445 155.133 48.3976C155.133 52.7507 158.659 56.2796 163.009 56.2796Z" fill="#F2A48B"/>
<path id="Vector_33" d="M169.469 52.4716C169.531 52.9425 168.679 52.9922 168.488 52.5579C168.296 52.1236 168.545 51.6314 168.787 51.2229L169.348 50.2748C169.454 50.0963 169.516 49.895 169.528 49.6878C169.54 49.4806 169.503 49.2734 169.419 49.0835C169.335 48.8937 169.207 48.7266 169.046 48.5963C168.884 48.466 168.694 48.3762 168.491 48.3344C169.005 47.1773 168.447 45.7331 167.423 44.9896C166.399 44.2461 164.875 45.6372 163.632 45.8758C162.389 46.1143 161.394 45.1625 160.262 45.7268L160.942 44.1567L157.175 45.7809L158.05 44.0147C157.1 44.0666 156.695 45.2254 156.506 46.1592C156.304 47.1541 155.774 48.3979 154.693 48.1917C154.437 48.1345 154.202 48.0061 154.015 47.8211C153.829 47.6361 153.698 47.4022 153.639 47.1462C152.804 43.9235 155.228 40.4004 158.442 39.8352C158.786 38.8854 159.425 38.0708 160.265 37.5106C161.105 36.9504 162.102 36.6741 163.11 36.7222C164.118 36.7702 165.085 37.1401 165.867 37.7776C166.65 38.4151 167.209 39.2868 167.461 40.2649L168.515 38.9737L168.72 40.8032C169.477 40.7227 170.193 41.2577 170.561 41.925C170.929 42.5923 170.755 43.4538 171.108 44.1289C172.692 47.1549 172.168 50.5616 169.723 52.8824" fill="#031225"/>
<path id="Vector_34" d="M197.094 189.955C197.256 189.963 197.416 189.92 197.553 189.833C197.69 189.746 197.797 189.62 197.86 189.47C197.922 189.32 197.937 189.155 197.903 188.996C197.868 188.838 197.786 188.694 197.667 188.583L197.613 188.368C197.62 188.351 197.627 188.333 197.634 188.316C197.797 187.93 198.071 187.602 198.42 187.371C198.769 187.14 199.179 187.018 199.598 187.019C200.016 187.021 200.425 187.146 200.772 187.38C201.12 187.613 201.391 187.944 201.551 188.331C202.192 189.875 203.008 191.422 203.209 193.055C203.297 193.776 203.26 194.508 203.098 195.217C204.603 191.932 205.384 188.361 205.389 184.748C205.39 183.841 205.339 182.935 205.239 182.034C205.155 181.295 205.04 180.561 204.892 179.833C204.086 175.881 202.354 172.177 199.839 169.026C198.622 168.361 197.638 167.339 197.019 166.098C196.795 165.651 196.637 165.175 196.549 164.683C196.686 164.701 197.066 162.608 196.963 162.48C197.154 162.19 197.497 162.045 197.706 161.762C198.745 160.352 200.177 160.598 200.924 162.514C202.521 163.32 202.536 164.658 201.557 165.944C200.933 166.763 200.848 167.87 200.301 168.746C200.357 168.818 200.415 168.888 200.472 168.96C201.5 170.284 202.397 171.705 203.148 173.204C202.966 171.525 203.184 169.827 203.785 168.249C204.394 166.778 205.536 165.539 206.541 164.268C206.807 163.926 207.168 163.671 207.579 163.535C207.99 163.399 208.432 163.388 208.849 163.503C209.266 163.618 209.639 163.854 209.922 164.182C210.205 164.509 210.385 164.913 210.438 165.343C210.44 165.362 210.442 165.381 210.444 165.399C210.295 165.484 210.149 165.573 210.006 165.668C209.826 165.788 209.687 165.96 209.606 166.16C209.526 166.361 209.508 166.581 209.554 166.793C209.601 167.004 209.711 167.196 209.868 167.344C210.026 167.492 210.225 167.588 210.438 167.621L210.46 167.625C210.407 168.163 210.313 168.697 210.179 169.222C211.469 174.214 208.684 176.032 204.707 176.114C204.62 176.159 204.534 176.204 204.446 176.247C205.201 178.388 205.675 180.619 205.855 182.883C205.957 184.218 205.951 185.56 205.837 186.894L205.844 186.847C206.132 185.363 206.923 184.024 208.083 183.056C209.807 181.639 212.242 181.118 214.101 179.979C214.298 179.852 214.528 179.784 214.763 179.783C214.998 179.783 215.228 179.85 215.426 179.976C215.624 180.102 215.782 180.282 215.882 180.495C215.981 180.708 216.017 180.944 215.986 181.177L215.979 181.227C215.702 181.34 215.432 181.47 215.171 181.617C215.021 181.701 214.875 181.791 214.732 181.885C214.553 182.005 214.413 182.177 214.333 182.378C214.252 182.579 214.234 182.799 214.281 183.01C214.328 183.221 214.437 183.413 214.595 183.561C214.752 183.709 214.951 183.806 215.165 183.839L215.187 183.842C215.202 183.844 215.216 183.847 215.232 183.849C214.758 184.981 214.093 186.022 213.267 186.928C212.46 191.286 208.996 191.7 205.29 190.431H205.288C204.882 192.199 204.292 193.92 203.53 195.566H197.251C197.229 195.496 197.208 195.424 197.188 195.354C197.769 195.391 198.353 195.356 198.926 195.251C198.46 194.679 197.994 194.102 197.528 193.53C197.517 193.519 197.508 193.508 197.499 193.496C197.262 193.203 197.024 192.913 196.787 192.62L196.787 192.62C196.775 191.722 196.878 190.826 197.094 189.955Z" fill="#F5F7F9"/>
<path id="Vector_35" d="M100.029 195.585C100.029 195.639 100.04 195.693 100.061 195.743C100.081 195.794 100.112 195.84 100.15 195.878C100.189 195.917 100.235 195.947 100.285 195.968C100.335 195.989 100.389 195.999 100.444 195.999H215.537C215.647 195.999 215.753 195.956 215.83 195.878C215.908 195.8 215.952 195.695 215.952 195.585C215.952 195.475 215.908 195.369 215.83 195.291C215.753 195.214 215.647 195.17 215.537 195.17H100.444C100.389 195.17 100.335 195.18 100.285 195.201C100.235 195.222 100.189 195.252 100.15 195.291C100.112 195.33 100.081 195.375 100.061 195.426C100.04 195.476 100.029 195.53 100.029 195.585Z" fill="#F5F7F9"/>
<path id="Vector_36" d="M166.364 126.686C166.744 126.458 167.071 126.149 167.321 125.782C167.57 125.414 167.738 124.997 167.81 124.559C167.883 124.121 167.86 123.672 167.742 123.243C167.625 122.815 167.416 122.417 167.129 122.078L174.004 108.424L170.698 105.593L162.651 121.869C162.116 122.394 161.792 123.097 161.74 123.845C161.688 124.593 161.912 125.334 162.37 125.928C162.827 126.522 163.487 126.927 164.223 127.067C164.959 127.206 165.721 127.071 166.364 126.686Z" fill="#F2A48B"/>
<path id="Vector_37" d="M181.925 70.3273L182.27 71.921L181.444 94.1983L177.914 103.335L174.318 112.65L173.875 113.797L168.756 121.117L169.251 117.863L165.481 116.141L165.129 115.984L166.488 112.141L169.614 103.311L170.966 99.4886L171.258 88.1163L171.53 77.3648C171.577 75.5144 172.008 73.694 172.794 72.0187C173.581 70.3433 174.706 68.8495 176.098 67.6316L178.559 65.4834C180.022 66.84 181.318 68.5627 181.925 70.3273Z" fill="#F5F7F9"/>
<path id="Vector_38" d="M99.6857 125.979L83.3505 125.631C81.3185 125.628 79.3706 124.818 77.9341 123.38C76.4975 121.942 75.6894 119.992 75.6872 117.959L74.9902 100.866C76.996 114.801 84.7039 123.64 99.6857 125.979Z" fill="#0F1D2F"/>
</g>
<defs>
<clipPath id="clip0_804_6748">
<rect width="216" height="196" fill="white"/>
</clipPath>
</defs>
</svg>
