<svg width="20" height="20" viewBox="0 0 20 20" fill="none" xmlns="http://www.w3.org/2000/svg">
<rect width="20" height="20" fill="#F5F5F5"/>
<g id="Image Generator Web">
<path d="M-516 -4080C-516 -4081.1 -515.105 -4082 -514 -4082H11472C11473.1 -4082 11474 -4081.1 11474 -4080V2254C11474 2255.1 11473.1 2256 11472 2256H-514C-515.104 2256 -516 2255.1 -516 2254V-4080Z" fill="#273240"/>
<path d="M-514 -4081H11472V-4083H-514V-4081ZM11473 -4080V2254H11475V-4080H11473ZM11472 2255H-514V2257H11472V2255ZM-515 2254V-4080H-517V2254H-515ZM-514 2255C-514.552 2255 -515 2254.55 -515 2254H-517C-517 2255.66 -515.656 2257 -514 2257V2255ZM11473 2254C11473 2254.55 11472.6 2255 11472 2255V2257C11473.7 2257 11475 2255.66 11475 2254H11473ZM11472 -4081C11472.6 -4081 11473 -4080.55 11473 -4080H11475C11475 -4081.66 11473.7 -4083 11472 -4083V-4081ZM-514 -4083C-515.657 -4083 -517 -4081.66 -517 -4080H-515C-515 -4080.55 -514.552 -4081 -514 -4081V-4083Z" fill="#031225" fill-opacity="0.1"/>
<g id="Image Generator Demo - Default" clip-path="url(#clip0_0_1)">
<rect width="1920" height="1080" transform="translate(-396 -144)" fill="#F5F7F9"/>
<g id="Sidebar">
<rect width="480" height="1080" transform="translate(-396 -144)" fill="#031225"/>
<g id="Frame 136">
<g id="Prompt">
<g id="Type a Prompt">
<rect id="Rectangle 151" x="-356" y="-24" width="400" height="200" rx="24" fill="#0F1D2F"/>
<path id="Vector" d="M16.3636 0L15.2182 2.5L12.7273 3.63636L15.2182 4.78182L16.3636 7.27273L17.5 4.78182L20 3.63636L17.5 2.5M7.27273 2.72727L5 7.72727L0 10L5 12.2727L7.27273 17.2727L9.54545 12.2727L14.5455 10L9.54545 7.72727M16.3636 12.7273L15.2182 15.2182L12.7273 16.3636L15.2182 17.5L16.3636 20L17.5 17.5L20 16.3636L17.5 15.2182" fill="#F5F7F9"/>
</g>
</g>
</g>
</g>
</g>
</g>
<defs>
<clipPath id="clip0_0_1">
<rect width="1920" height="1080" fill="white" transform="translate(-396 -144)"/>
</clipPath>
</defs>
</svg>
